<svg xmlns="http://www.w3.org/2000/svg" viewBox="0 0 462 698"><defs><style>.a{fill:#fff;}.b,.c,.e{fill:#233a55;}.b{opacity:0.76;}.d{fill:#0b131c;}.e{opacity:0.26;}</style></defs><title>Untitled-3</title><path class="a" d="M461.63,657C449.89,655.11,151,605,0,395.62V498C125.53,659.37,449.41,657.15,461.63,657Z"/><path class="b" d="M461.63,657C449.89,655.11,151,605,0,395.62V498C125.53,659.37,449.41,657.15,461.63,657Z"/><path class="c" d="M462,657.06V657h-.37Z"/><path class="c" d="M0,498V698H462V657.06l-.37-.06C449.41,657.15,125.53,659.37,0,498Z"/><path class="d" d="M462,1H0V396.62C150.85,605.87,449.46,656,461.6,658h.4Z"/><path class="c" d="M69.28,0l.48.68c12.42,11,175.1,151,392.24,134.51V0Z"/><path class="e" d="M69.76.68C77.64,11.56,182.54,150,462,209.74V135.19C244.86,151.71,82.18,11.68,69.76.68Z"/></svg>