<svg xmlns="http://www.w3.org/2000/svg" viewBox="0 0 312 624"><defs><style>.a{fill:none;}.b{fill:#58697e;}.c{fill:#111d2b;}</style></defs><title>uiLeftMenu1</title><path class="a" d="M96,361c19.77-90.48,56.84-102.1,57-178,.19-91-53-141.51-72.19-183H33V624h86.16C63.57,518.29,94.26,369,96,361Z"/><path class="b" d="M96,361c-1.74,8-32.43,157.29,23.16,263H312V0H80.81C100,41.49,153.19,92,153,183,152.84,258.9,115.77,270.52,96,361Z"/><path class="a" d="M138,359c32.28-114.48,68.8-132.38,62-206C192.64,73.27,144.36,35.14,135.55,0H63V624h55.75C96,556.5,116.76,434.35,138,359Z"/><path class="c" d="M138,359c-21.24,75.35-42,197.5-19.25,265H312V0H135.55c8.81,35.14,57.09,73.27,64.45,153C206.8,226.62,170.28,244.52,138,359Z"/></svg>